<svg version="1.2" xmlns="http://www.w3.org/2000/svg" viewBox="0 0 118 24" width="118" height="24">
	<title>logo-svg</title>
	<style>
		.s0 { fill: #000000 } 
		.s1 { fill: #ff5c39 } 
	</style>
	<path id="Layer" fill-rule="evenodd" class="s0" d="m117 10.9q-0.5 0.5-1.4 0.5-0.8 0-1.4-0.5-0.6-0.6-0.6-1.4 0-0.8 0.6-1.3 0.6-0.6 1.4-0.6 0.8 0 1.4 0.6 0.6 0.5 0.6 1.3 0 0.8-0.6 1.4zm-2.6-2.5q-0.5 0.4-0.5 1.1 0 0.7 0.5 1.2 0.5 0.5 1.2 0.5 0.7 0 1.2-0.5 0.5-0.5 0.5-1.2 0-0.7-0.5-1.1-0.5-0.5-1.2-0.5-0.7 0-1.2 0.5zm1.2 0.1q0.4 0 0.6 0 0.3 0.2 0.3 0.6 0 0.2-0.2 0.4-0.1 0-0.3 0.1 0.2 0 0.3 0.2 0.2 0.1 0.2 0.3c0 0.1 0 0.2 0 0.3q0 0.1 0 0.1h-0.3q0 0 0 0l-0.1-0.1v-0.1q0-0.4-0.2-0.5-0.1-0.1-0.4-0.1h-0.3v0.8h-0.4v-2.1h0.8zm0.4 0.4q-0.1-0.1-0.5-0.1h-0.3v0.8h0.3q0.3 0 0.4-0.1 0.2-0.1 0.2-0.3 0-0.3-0.1-0.3z"/>
	<path id="Layer" fill-rule="evenodd" class="s0" d="m84.4 15.9q-0.3 3-2.6 5-2.4 2-5.8 2-3.5 0-5.9-2.2-2.5-2.2-2.5-5.7 0-3.5 2.5-5.7 2.4-2.3 5.9-2.3 5.3 0.1 7.8 4.9l-12.1 6.3q0.2 0.3 0.5 0.6 1.5 1.5 3.8 1.5 4.3 0 5.4-4.8zm-13.7-0.8q0 0.4 0 0.8l8.9-4.7q-1.6-1.4-3.7-1.4-2.2 0-3.7 1.4-1.5 1.5-1.5 3.9z"/>
	<path id="Layer" class="s0" d="m95.3 22.6h-4q-2.2 0-3.5-1.3-1.2-1.3-1.2-3.6v-14.2h2.9v3.9h5.8v2.6h-5.8v8q0 2 2.2 2h3.6v2.6z"/>
	<path id="Layer" fill-rule="evenodd" class="s0" d="m113 15q0 3.5-2.5 5.7-2.5 2.2-5.9 2.2-3.5 0.1-5.9-2.2-2.5-2.2-2.5-5.7 0-3.5 2.5-5.7 2.4-2.2 5.9-2.3 3.4 0 5.9 2.3 2.5 2.2 2.5 5.7zm-3.2 0q0-2.3-1.4-3.8-1.5-1.5-3.8-1.5-2.3 0-3.8 1.5-1.5 1.5-1.5 3.8 0 2.3 1.5 3.8 1.5 1.5 3.8 1.5 2.3 0 3.8-1.5 1.4-1.5 1.4-3.8z"/>
	<path id="Layer" class="s0" d="m65.5 14.6q-0.2-3.2-2.5-5.3-2.5-2.3-5.9-2.3-3.5 0-5.9 2.3-2.3 2.1-2.5 5.3v8h3.1v-7.6q0-2.4 1.5-3.8 1.5-1.5 3.8-1.5 2.3 0 3.8 1.5 1.5 1.5 1.4 3.8v7.6h3.2z"/>
	<path id="Layer" fill-rule="evenodd" class="s1" d="m36.9 24h-9c-0.8 0-1.5-0.3-2.1-0.9-0.5-0.5-0.8-1.2-0.8-1.8 0.2-2.9 0.2-9.2-2.1-13.8q-2.1 0.7-3.6 2.1c-3.8 3.7-3.9 10.4-3.9 12.4 0.1 0.5-0.1 1-0.5 1.4-0.4 0.4-1 0.6-1.5 0.6h-10.6c-1.4 0-2.8-1.3-2.8-2.6 0-3.8 0.5-13.2 5.7-18.2q3.3-3.2 8.4-3.2 5.1 0 8.3 3.2 0.9 0.9 1.5 1.9 1.3-0.2 2.6-0.2 5.4 0 8.6 3.3c4.1 4.2 4.1 11.2 3.8 14 0 1.1-0.9 1.8-2 1.8zm-11.9-16.9c2.4 5 2.4 11.3 2.2 14.3 0 0 0 0.2 0.2 0.3 0.1 0.1 0.3 0.2 0.5 0.2h8.9c0.1-2.1 0.3-8.6-3.3-12.3-1.7-1.7-4-2.6-7-2.6q-0.8 0-1.5 0.1zm-10.9-5c-2.7 0-5.1 0.8-6.9 2.6-4.6 4.4-5.1 13.1-5 16.7 0 0.2 0.3 0.6 0.6 0.6h10.5c-0.1-2.9 0.2-9.7 4.4-13.8q1.7-1.7 4-2.5-0.4-0.5-0.9-1c-1.7-1.8-3.9-2.6-6.7-2.6z"/>
</svg>